<?xml version="1.0" encoding="utf-8"?><!DOCTYPE svg PUBLIC "-//W3C//DTD SVG 1.1//EN" "http://www.w3.org/Graphics/SVG/1.1/DTD/svg11.dtd"><svg version="1.1" xmlns="http://www.w3.org/2000/svg" xmlns:xlink="http://www.w3.org/1999/xlink" x="0px" y="0px" width="120px" height="100px"><rect y="0" x="0" width="120" height="100" fill="#FAFAFA" stroke="#DDD" stroke-width="2" stroke-linejoin="round" /><g transform="translate(77,40)"><path d="M0.5,0.5 L0.5,20.5 L10.5,20.5 L10.5,0.5 L0.5,0.5 Z" fill="#2185D0" stroke="#2185D0" stroke-width="1" stroke-opacity="1" /></g><path d="M82.5,40.5 L82.5,30.5" fill="none" stroke-width="1" stroke-opacity="1" stroke="#2185D0" /><path d="M82.5,60.5 L82.5,70.5" fill="none" stroke-width="1" stroke-opacity="1" stroke="#2185D0" /><g transform="translate(62,70)"><path d="M0.5,0.5 L0.5,10.5 L10.5,10.5 L10.5,0.5 L0.5,0.5 Z" fill="#2185D0" stroke="#2185D0" stroke-width="1" stroke-opacity="1" /></g><path d="M67.5,70.5 L67.5,60.5" fill="none" stroke-width="1" stroke-opacity="1" stroke="#2185D0" /><path d="M67.5,80.5 L67.5,90.5" fill="none" stroke-width="1" stroke-opacity="1" stroke="#2185D0" /><g transform="translate(47,30)"><path d="M0.5,0.5 L0.5,30.5 L10.5,30.5 L10.5,0.5 L0.5,0.5 Z" fill="#DB2828" stroke="#DB2828" stroke-width="1" stroke-opacity="1" /></g><path d="M52.5,30.5 L52.5,20.5" fill="none" stroke-width="1" stroke-opacity="1" stroke="#DB2828" /><path d="M52.5,60.5 L52.5,70.5" fill="none" stroke-width="1" stroke-opacity="1" stroke="#DB2828" /><path d="M29.5,40.5 L29.5,20.5" fill="none" stroke-width="1" stroke-opacity="1" stroke="#DB2828" /><path d="M21.5,35.5 L21.5,15.5" fill="none" stroke-width="1" stroke-opacity="1" stroke="#DB2828" /><path d="M13.5,30.5 L13.5,10.5" fill="none" stroke-width="1" stroke-opacity="1" stroke="#DB2828" /></svg>