<?xml version="1.0" encoding="utf-8"?><svg version="1.1" xmlns="http://www.w3.org/2000/svg" x="0px" y="0px" width="120px" height="100px"><rect y="0" x="0" width="120" height="100" fill="#FAFAFA" stroke="#DDD" stroke-width="2" stroke-linejoin="round" /><g transform="translate(74,40)"><path d="M0.5,0.5 L0.5,20.5 L10.5,20.5 L10,0.5 L0.5,0.5 Z" fill="#2185D0" stroke="#2185D0" stroke-width="1" stroke-opacity="1" /></g><path d="M79.5,40.5 L79.5,30.5" fill="none" stroke-width="1" stroke-opacity="1" stroke="#2185D0" /><path d="M79.5,60.5 L79.5,70.5" fill="none" stroke-width="1" stroke-opacity="1" stroke="#2185D0" /><g transform="translate(60,70)"><path d="M0.5,0.5 L0.5,10.5 L10.5,10.5 L10,0.5 L0.5,0.5 Z" fill="#2185D0" stroke="#2185D0" stroke-width="1" stroke-opacity="1" /></g><path d="M65.5,70.5 L65.5,60.5" fill="none" stroke-width="1" stroke-opacity="1" stroke="#2185D0" /><path d="M65.5,80.5 L65.5,90.5" fill="none" stroke-width="1" stroke-opacity="1" stroke="#2185D0" /><g transform="translate(46,30)"><path d="M0.5,0.5 L0.5,30.5 L10.5,30.5 L10,0.5 L0.5,0.5 Z" fill="#DB2828" stroke="#DB2828" stroke-width="1" stroke-opacity="1" /></g><path d="M51.5,30.5 L51.5,20.5" fill="none" stroke-width="1" stroke-opacity="1" stroke="#DB2828" /><path d="M51.5,60.5 L51.5,70.5" fill="none" stroke-width="1" stroke-opacity="1" stroke="#DB2828" /><path d="M31.5,40.5 L31.5,20.5" fill="none" stroke-width="1" stroke-opacity="1" stroke="#DB2828" /><path d="M23.5,35.5 L23.5,15.5" fill="none" stroke-width="1" stroke-opacity="1" stroke="#DB2828" /><path d="M15.5,30.5 L15.5,10.5" fill="none" stroke-width="1" stroke-opacity="1" stroke="#DB2828" /></svg>